<svg xmlns="http://www.w3.org/2000/svg" xmlns:xlink="http://www.w3.org/1999/xlink" viewBox="0 0 335.78 227.53"><defs><style>.cls-1{fill:#fff;stroke:#0d5372;stroke-miterlimit:10;stroke-width:2px;}.cls-2{fill:#aa54fc;}.cls-3{fill:#22b573;}.cls-4{fill:#ff7bac;}.cls-5{fill:url(#New_Gradient_Swatch_1);}.cls-6{fill:url(#New_Gradient_Swatch_1-2);}.cls-7{fill:url(#New_Gradient_Swatch_1-3);}.cls-8{fill:url(#New_Gradient_Swatch_1-4);}.cls-9{fill:none;}.cls-10{fill:#e9f1ff;}.cls-11{fill:#dfe7f7;}</style><linearGradient id="New_Gradient_Swatch_1" x1="50.98" y1="47.42" x2="68.04" y2="115.65" gradientUnits="userSpaceOnUse"><stop offset="0" stop-color="#fffae3"/><stop offset="0.07" stop-color="#fff4e8"/><stop offset="0.21" stop-color="#fee"/><stop offset="0.32" stop-color="#ffe2f6"/><stop offset="0.44" stop-color="#ffdcfa"/><stop offset="0.48" stop-color="#fad9fb"/><stop offset="0.62" stop-color="#efd2ff"/><stop offset="0.64" stop-color="#ead4ff"/><stop offset="0.75" stop-color="#d8dcff"/><stop offset="0.82" stop-color="#d2dfff"/><stop offset="0.86" stop-color="#dae9f9"/><stop offset="0.94" stop-color="#e6f9ef"/><stop offset="1" stop-color="#ebffec"/></linearGradient><linearGradient id="New_Gradient_Swatch_1-2" x1="141.31" y1="24.84" x2="158.37" y2="93.07" xlink:href="#New_Gradient_Swatch_1"/><linearGradient id="New_Gradient_Swatch_1-3" x1="219.11" y1="5.39" x2="236.17" y2="73.62" xlink:href="#New_Gradient_Swatch_1"/><linearGradient id="New_Gradient_Swatch_1-4" x1="274.52" y1="-8.47" x2="291.58" y2="59.77" xlink:href="#New_Gradient_Swatch_1"/></defs><g id="Layer_2" data-name="Layer 2"><g id="text"><path class="cls-1" d="M334.76,71.39c0-6.86-4.17-9.87-6.69-11.07a16.56,16.56,0,0,0-13.5-.18,11.55,11.55,0,0,0-4.34,3.18,26.24,26.24,0,0,0-15.33-4.56c-.54,0-1.09,0-1.63,0a31.45,31.45,0,0,0-6.4.94A13,13,0,0,0,280,47.62c.26-1.21.51-2.4.77-3.57,1.71-7.73-1.82-12-5-14.16a24.78,24.78,0,0,0-13.45-4,19.82,19.82,0,0,0-2.57.16,12.81,12.81,0,0,0-6.51-3.51c-14.85-3.4-31.41-6.7-44.79-9.36l-1.82-.36a13.94,13.94,0,0,0-2.69-.27,12.58,12.58,0,0,0-10.84,6.09c0-.41,0-.82,0-1.21,0-8.1-4.46-11.56-8.15-13a24.46,24.46,0,0,0-9-1.64,24,24,0,0,0-8.57,1.49,14.09,14.09,0,0,0-4,2.31c-2.28-3-6.43-5.55-14-5.55-4.69,0-8.58,1.07-11.53,3.18a13.56,13.56,0,0,0-5.74,11.37V17.5l-1.79.15c0-.93-.06-1.79-.09-2.59-.4-8.49-6.67-13.76-16.35-13.76l-1.4,0C97,2.06,95.57,12.48,95.68,17c0,1.59.1,3.14.16,4.66a15.41,15.41,0,0,0-9.16-2.77,24.69,24.69,0,0,0-5.16.59c-4.5,1-8,2.93-10.21,5.63a15.57,15.57,0,0,0-6.48-1.34,24.15,24.15,0,0,0-5.44.68,18.19,18.19,0,0,0-10,5.6,11.06,11.06,0,0,0-4.72,0c-9.47,1.91-25.17,5.91-33.62,8.1S-.45,46.47,1.61,56.88C2.8,62.92,6.08,70.11,15,70.11h.13l-.2.09A12.33,12.33,0,0,0,7.52,84.4c0,.06,0,.18.05.24,2.08,8.82,6.67,24.36,9.87,30.6A14.71,14.71,0,0,0,31,123.51a21.83,21.83,0,0,0,5-.64,194.58,194.58,0,0,0,27.23-8.39c2.51,5.62,7.14,8.76,13.15,8.76a18.77,18.77,0,0,0,2.55-.18l.24,0a16.69,16.69,0,0,0,9.91-5.23,13.67,13.67,0,0,0,8.51,2.76,17.84,17.84,0,0,0,2.55-.19c7.18-1,12.24-5.93,13.41-12.35a16.22,16.22,0,0,0,9.4,6.56l.14,0a14.12,14.12,0,0,0,10-1.38,209,209,0,0,0,19.38-11.32c7.17,3.89,17.27,8.56,22.2,10.22a15.19,15.19,0,0,0,4.94.85,12.73,12.73,0,0,0,5.33-1.13c5.2-2.27,10.47-9.19,10.29-16.75a12.41,12.41,0,0,0-5.93-10.57l-.17-.11c-3.91-2.37-9.36-5.12-14.61-7.7h.24a23.52,23.52,0,0,0,7.95-1.22c.64-.26,1.24-.54,1.81-.84a13.9,13.9,0,0,0,7.89,4.42c3.47.72,7.71,1.46,12.66,2.22a29.06,29.06,0,0,0-6.09,12.49c-1.73,7.8-.5,15.14,3.56,21.23,4.7,7.06,12.9,11.82,23.72,13.76a51.63,51.63,0,0,0,6.48.73,13.32,13.32,0,0,0-4.11,2.5,13.15,13.15,0,0,0-3.79-.54h-.49c-2.29.09-4.59.15-7,.22-1.59-6.12-7.06-9.78-15-9.78-.75,0-1.54,0-2.39.09-10.63.8-14.24,6.43-15.41,10.94l-6.83.28a13,13,0,0,0-6.88,2.43,11.59,11.59,0,0,0-9.06-4.63h-.2c-1,0-2.62,0-4.78,0-12.33,0-42.3.45-48.21.77-7,.27-12.15,5.69-12.15,12.89,0,6.69.11,14.6.31,21.7.14,5,.32,9.43.52,13,.26,4.45,1.68,8,4.06,10.59-3.9,2.6-6.28,7.24-6.17,12.78,0,8.59,5.81,14.58,14.08,14.58h.17c19.32-.38,36.54-1.41,54.21-3.24,7.79-.81,12.83-6.53,12.83-14.58v-.26a13.76,13.76,0,0,0-6.35-11.65,14.29,14.29,0,0,0,2.69-8c.07-1.72.14-3.58.21-5.53a25.84,25.84,0,0,0,6.07,9.74,26.81,26.81,0,0,0,6.13,4.56,14.43,14.43,0,0,0-.34,3.13c.09,6.05.75,17.15,1.13,21.4a.61.61,0,0,0,0,.14c.93,8.73,6.34,13.54,15.22,13.54,10.41,0,31.57-.47,41.06-1.22a12.37,12.37,0,0,0,11.55-11.08c0-.13,0-.26,0-.43.45-4.84,1.23-18.26,1-25.68a12.66,12.66,0,0,0-.44-3.19,14.65,14.65,0,0,0,1.88-6.41c.21-3.26.38-7.21.49-11.74.18-7.51.21-16.6.08-24.85s-5-11.23-7.93-12.34a20.69,20.69,0,0,0-4.8-1.2c11.23-2.91,19-11.21,21-23.09a29.68,29.68,0,0,0-.72-14,13,13,0,0,0,2.91-2,23.47,23.47,0,0,0,4.35,10.18c-3.72,2.21-6,6.31-6,11.37,0,7.67,5.14,13,12.5,13h.33c9.07-.34,22.44-1.24,33-2.75a11.42,11.42,0,0,0,3.07,1.66,14.89,14.89,0,0,0,5.12.91,13.13,13.13,0,0,0,4.17-.66c5.27-1.84,8.76-6.1,9.1-11C334.44,96.45,334.88,85.06,334.76,71.39ZM193.11,39.1a13.17,13.17,0,0,0,3.08,2.41c-.43,2.45-.87,5-1.31,7.77a13.82,13.82,0,0,0-1.94.27C193,46.19,193.08,42.66,193.11,39.1ZM233,100.15l0,.12a9.15,9.15,0,0,1-1.32-.14,4.42,4.42,0,0,1-.53-.11.44.44,0,0,0,0-.1h.28a5.36,5.36,0,0,1,.91.09ZM115.49,88.26a13.44,13.44,0,0,0-3.12,3.57c-.82-6.13-1.71-12-2.68-17.9a17,17,0,0,0,4.32.69c1.74,0,3.58,0,5.49,0,4.34,0,9.1-.09,13.88-.25l.12,1.51-5.26,3.52c-5.08,3.38-9.88,6.58-12.59,8.69ZM141,164.87c-3.47,0-7.59.08-11.19.1-.06-1.09-.12-2.21-.18-3.33h11.28C140.94,162.66,141,164.87,141,164.87Z"/><path class="cls-2" d="M31,115.54a7.7,7.7,0,0,1-7.28-4.43c-2.4-4.67-6.72-18.2-9.26-29a5.22,5.22,0,0,1,3.2-6.28c4.51-1.81,11.46-4.32,20.69-7.48C37.54,65,36.63,61.2,35.7,57.85l-2.26.53C28,59.65,22.39,61,17.26,61.89a12.69,12.69,0,0,1-2.32.25c-4.31,0-5.61-3.6-6.38-7.5-1.16-5.86-.83-9.27,4.24-10.53,8.43-2.19,24-6.15,33.33-8A4,4,0,0,1,47,36a3.93,3.93,0,0,1,3.81,3.36c2.71,11.58,5.34,22.88,7.51,33.48.9,4.19-.53,6.79-4.5,8.17-4.9,1.78-13.27,4.46-18.27,6l.74,3.69c.38,1.88.76,3.78,1,5.15a2.25,2.25,0,0,0,.26.76h.1a3.39,3.39,0,0,0,.83-.15c7.87-2.13,12.21-3.28,18.77-5a9.27,9.27,0,0,1,2.22-.31c3.49,0,4.71,2.88,5.38,5.39,2,7.3-1.49,9.46-3.1,10a189.5,189.5,0,0,1-27.37,8.53A14.91,14.91,0,0,1,31,115.54Zm45.43-.27c-5.23,0-6.81-4.12-7.55-7.22C62.81,83.59,57.83,61.37,53.66,40.13,52.57,35,55,31.88,61,30.47A17,17,0,0,1,64.81,30c3.89,0,6.36,1.93,7.15,5.58L76.3,55.74c1-.21,1.87-.39,2.77-.57l.46-.09q-.91-4.92-1.94-10.17c-.62-3.24-1.27-6.59-1.92-10.07-1-4.9,1.41-8.05,7.32-9.32a18,18,0,0,1,3.67-.43c4.19,0,6.87,2.08,7.56,5.85,5.65,26.32,9.51,46.53,12.44,71.85.71,5.12-2.21,8.93-7.45,9.67a10.92,10.92,0,0,1-1.57.11c-5.15,0-6.71-4.06-7.44-7.12C87.62,94.3,85.41,84.22,83.1,73L80,73.62c1.84,9.08,3.59,18.93,5.64,31.65.72,5.12-2.26,9-7.59,9.87A10.66,10.66,0,0,1,76.44,115.27Z"/><path class="cls-2" d="M86.66,26.59c3.9,0,5.61,2,6.08,4.62,5.36,24.94,9.43,45.87,12.43,71.76.58,4.15-1.61,7.36-6.17,8a11,11,0,0,1-1.36.09c-3.26,0-5-1.91-6-6-3-12.74-5.25-23.42-7.4-33.92l-6,1.29c2.15,10.5,4,21.06,5.92,33,.6,4.26-1.82,7.41-6.35,8.16a9.83,9.83,0,0,1-1.38.11c-3.34,0-5.12-2-6.09-6.06-5.51-22.17-10.7-44.84-15.22-67.87-.81-3.77.3-6.53,6.19-7.91a15.52,15.52,0,0,1,3.49-.45c3.46,0,5.11,1.72,5.68,4.4l4.66,21.69c2.22-.59,4.18-.9,6.12-1.32C80,49.5,78.61,42.36,77.14,34.56c-.76-3.56.35-6.32,6.16-7.57a16.28,16.28,0,0,1,3.36-.4M47,37.48a2.44,2.44,0,0,1,2.34,2.18c2.55,10.85,5.29,22.65,7.51,33.46.74,3.46-.24,5.32-3.52,6.46C48.07,81.47,38.69,84.47,33.79,86c.56,2.62,1.49,7.46,2.08,10.18.29,1.34.78,2,1.82,2a4.73,4.73,0,0,0,1.22-.2c7.87-2.13,12.2-3.28,18.76-5a7.73,7.73,0,0,1,1.84-.26c2,0,3.11,1.2,3.94,4.28,1.38,5,0,7.46-2.18,8.25a186.34,186.34,0,0,1-27.19,8.48A13.85,13.85,0,0,1,31,114a6.18,6.18,0,0,1-5.94-3.62C22.68,105.78,18.34,92,15.93,81.8a3.71,3.71,0,0,1,2.33-4.55c5.89-2.37,14.92-5.51,21.88-7.88-1-4.17-2.19-9.18-3.39-13.31-6.4,1.49-13.5,3.23-19.76,4.36a11.3,11.3,0,0,1-2,.22c-2.49,0-3.94-1.4-4.91-6.29-1.27-6.41-.21-8,3.13-8.78,9.8-2.55,24.47-6.25,33.26-8a2.91,2.91,0,0,1,.57-.06M86.66,23.59a19.16,19.16,0,0,0-4,.47c-3.54.76-6,2.11-7.37,4.12a8.62,8.62,0,0,0-1.1,7c.65,3.46,1.29,6.79,1.91,10,.59,3,1.14,5.91,1.67,8.73l-.33.06-4-18.71c-.94-4.37-4-6.77-8.62-6.77a18.81,18.81,0,0,0-4.17.53c-5.83,1.36-8.76,4.33-8.74,8.84A5.32,5.32,0,0,0,47,34.48h0a5.44,5.44,0,0,0-1.2.13c-9.33,1.89-24.92,5.86-33.38,8-6.82,1.69-6.32,7.22-5.32,12.27.51,2.61,1.72,8.71,7.85,8.71a13.91,13.91,0,0,0,2.6-.27c5.16-.93,10.8-2.25,16.26-3.53l.83-.2c.68,2.52,1.34,5.22,1.95,7.77-8.61,3-15.15,5.33-19.44,7l-.06,0A6.71,6.71,0,0,0,13,82.43v.06c2.27,9.64,6.69,24,9.39,29.3A9.2,9.2,0,0,0,31,117a16.39,16.39,0,0,0,3.76-.49A190.5,190.5,0,0,0,62.34,108a7,7,0,0,0,4-3.91c.36,1.45.72,2.9,1.08,4.37,1.31,5.52,4.34,8.34,9,8.34a14.23,14.23,0,0,0,1.79-.13l.08,0c6.1-1,9.65-5.65,8.83-11.53V105C85.19,93,83.51,83.48,81.77,74.78l.16,0c2.21,10.69,4.34,20.39,6.81,31,1.31,5.51,4.3,8.29,8.9,8.29A13.58,13.58,0,0,0,99.4,114c6-.86,9.55-5.42,8.75-11.36-2.94-25.35-6.8-45.59-12.46-72-.84-4.47-4.13-7-9-7ZM37.28,88c5.07-1.58,12.52-4,17.06-5.63,3.15-1.1,5-3,5.56-5.63q1.56,6.87,3.24,14a6.16,6.16,0,0,0-3.63-1.09A10.37,10.37,0,0,0,57,90c-6.68,1.77-10.87,2.88-18.29,4.89-.27-1.29-.59-2.91-.91-4.49-.16-.81-.32-1.61-.47-2.35Z"/><path class="cls-2" d="M126.38,107a8.16,8.16,0,0,1-1.7-.2A9.61,9.61,0,0,1,117.75,99a6,6,0,0,1,2.18-6.09c2.56-2,7.25-5.12,12.22-8.43,3-2,6.18-4.11,8.73-5.88l-.45-5.83a5.34,5.34,0,0,1,1.12-4.13c1.5-1.82,4.32-2.78,9.43-3.2.92-.08,1.78-.11,2.58-.11,5.94,0,8.95,2.14,8.95,6.37l-.18,6c1.74.88,3.82,1.9,6,3,6,2.94,12.77,6.27,17.19,8.95a5.38,5.38,0,0,1,2.68,4.68c.13,4.39-3.1,8.9-6.06,10.17a5.78,5.78,0,0,1-2.45.52,8.09,8.09,0,0,1-2.65-.48c-5.23-1.75-18.27-7.87-24.92-11.89a173.17,173.17,0,0,1-22.2,13.4A7.49,7.49,0,0,1,126.38,107Zm48.46-38.26a11.72,11.72,0,0,1-4.68-.76A7.3,7.3,0,0,1,166,61.23c-.18-10.49-.52-30.07-.31-44.55,0-3.4,1.36-5.59,4.16-6.68a16.86,16.86,0,0,1,6-1,17.08,17.08,0,0,1,6.37,1.13c3.26,1.27,3.71,3.86,3.71,6.47.21,13.35.11,32.93-.62,44.31A7.52,7.52,0,0,1,180.14,68,16.92,16.92,0,0,1,174.84,68.74Zm-55.36-2c-1.85,0-3.64,0-5.34,0a9.76,9.76,0,0,1-9.41-9.24c-.93-12.6-1.44-25.22-2-41.51-.14-5.43,3-8,10-8.33l1.09,0c5.92,0,9,2.35,9.25,7,0,.93.07,2,.11,3.21.06,2,.13,4.29.23,6.79l15.75-1.34V14.68c0-2.23,1-7.43,10.16-7.43,4.36,0,9.38.78,9.55,6.86.41,13.39.62,32.21-.73,45.78-.44,4.29-3.23,5.17-6.18,5.48C142.92,66.18,130.16,66.7,119.48,66.7Zm4.48-24c0,1.18,0,2.31.06,3.37s0,2.28.06,3.23c3.63-.08,6.73-.2,10.25-.33,1.45-.06,2.94-.12,4.55-.17.44,0,.51,0,.51-.52l-.08-6.47Z"/><path class="cls-2" d="M149.35,8.75c5.88,0,8,1.69,8.05,5.4.41,13.36.62,32.13-.72,45.59-.31,3-1.86,3.82-4.85,4.14-9.15.81-21.74,1.32-32.35,1.32-1.84,0-3.62,0-5.31,0a8.28,8.28,0,0,1-7.94-7.85c-.93-12.61-1.45-25.44-2-41.45-.11-4.24,1.85-6.47,8.56-6.79l1,0c4.76,0,7.57,1.47,7.76,5.54.1,2.75.21,6.89.41,11.55l18.68-1.59V14.68c0-3.71,2.78-5.93,8.66-5.93M122.63,50.84c5.88-.11,10.32-.32,16.3-.53a1.81,1.81,0,0,0,2-2l-.1-8.06L122.42,41.3c.11,3.81.11,7.31.21,9.54m53.22-40.35a15.84,15.84,0,0,1,5.8,1c2.16.85,2.78,2.34,2.78,5.09.21,13.25.11,32.87-.62,44.21a6,6,0,0,1-4.23,5.83,15.34,15.34,0,0,1-4.74.61,10.26,10.26,0,0,1-4-.61,5.8,5.8,0,0,1-3.3-5.4c-.2-11.88-.51-30.54-.31-44.53,0-2.86,1-4.45,3.2-5.3a15.54,15.54,0,0,1,5.45-.91M153.56,66.85c5.91,0,7.45,2.14,7.45,4.87l-.2,6.89c6.19,3.19,17.64,8.49,23.93,12.3a3.91,3.91,0,0,1,2,3.4c.11,3.71-2.68,7.74-5.16,8.8a4.35,4.35,0,0,1-1.85.39,6.83,6.83,0,0,1-2.17-.39A173.3,173.3,0,0,1,152,90.81c-6.71,5.19-17,10.92-22.81,13.89a6.13,6.13,0,0,1-2.85.8,6.19,6.19,0,0,1-1.38-.17,8.11,8.11,0,0,1-5.77-6.57,4.5,4.5,0,0,1,1.65-4.67c4.23-3.28,15.06-10.17,21.56-14.73l-.52-6.68c-.41-3.82,2.79-5.2,9.19-5.73.89-.07,1.7-.1,2.45-.1m-4.21-61.1c-7.3,0-11.66,3.34-11.66,8.93v7.11l-12.81,1.09c-.07-1.9-.13-3.67-.17-5.2,0-1.2-.08-2.29-.11-3.21C124.41,10.61,122.4,6,113.84,6l-1.13,0c-11.67.55-11.5,7.55-11.44,9.85.52,16.33,1,29,2,41.6a11.25,11.25,0,0,0,10.86,10.63c1.71,0,3.51,0,5.39,0,6.64,0,14.09-.2,21-.55l0,0A6.84,6.84,0,0,0,138.94,73l.38,4.92c-2.4,1.65-5.24,3.54-8,5.38-5,3.33-9.72,6.47-12.29,8.48l-.05,0a7.45,7.45,0,0,0-2.73,7.43s0,.06,0,.08a11.12,11.12,0,0,0,8,9h.06a9.25,9.25,0,0,0,2,.24,9,9,0,0,0,4.22-1.13,180.78,180.78,0,0,0,21.61-13c6.95,4.07,19.28,9.82,24.36,11.53a9.51,9.51,0,0,0,3.12.55,7.28,7.28,0,0,0,3.08-.66c3.46-1.51,7.06-6.5,6.93-11.58a6.83,6.83,0,0,0-3.31-5.86l-.09-.05c-4.48-2.72-11.3-6.06-17.31-9-1.83-.89-3.59-1.76-5.13-2.53l.15-5v-.09c0-2.38-.89-6.06-6-7.38a7.51,7.51,0,0,0,1.69-4.29c1.36-13.67,1.16-32.55.74-46-.23-8.31-8.37-8.31-11.05-8.31ZM125.49,44.12l12.34-.71,0,3.93-3.61.14c-3,.11-5.73.22-8.72.29q0-.81,0-1.71c0-.62,0-1.27,0-1.94ZM175.85,7.49h0a18.46,18.46,0,0,0-6.53,1.11c-3.4,1.33-5.12,4.05-5.12,8.1-.21,14.46.13,34,.31,44.56a8.79,8.79,0,0,0,5,8.08,12.71,12.71,0,0,0,5.33.9,18,18,0,0,0,5.88-.83A9,9,0,0,0,186.81,61c.73-11.43.83-31.06.62-44.46,0-2.76-.53-6.19-4.66-7.82a18.81,18.81,0,0,0-6.92-1.23Z"/><path class="cls-2" d="M234.9,121.58a43.42,43.42,0,0,1-7.33-.67c-8.85-1.59-15.43-5.29-19-10.7-3-4.45-3.84-9.89-2.54-15.76,2.43-11,11.33-17.54,23.79-17.54a41.74,41.74,0,0,1,6.27.5,37.42,37.42,0,0,1,11.75,3.69,7,7,0,0,1-.85-5.33l.21-1a5.44,5.44,0,0,1-5.24,3c-.34,0-.7,0-1.08,0-11.26-1.11-33.8-3.71-46.95-6.43-4.12-.77-5.62-3.51-4.7-8.62.62-3.07,1.94-7.12,6.46-7.12a9.92,9.92,0,0,1,1.06.07l.55.09c1.15.19,2.34.39,3.55.55,1.24-8,2.29-14.25,3.45-20.31-1-.22-2-.46-2.82-.72-3.94-1-5.35-4.15-4.1-9.29,1-4.71,3.25-7.11,6.55-7.11a6.81,6.81,0,0,1,1.33.13l1.74.35c13.3,2.65,29.85,5.94,44.67,9.33,2.26.5,4.69,2.05,4.46,6.42a5.69,5.69,0,0,1,4.25-2.76,13.3,13.3,0,0,1,1.93-.13,17.55,17.55,0,0,1,9.42,2.76c2.78,1.87,2.64,4.47,2.13,6.77q-.58,2.64-1.15,5.4-.45,2.18-.93,4.41c1.2.27,2.33.54,3.17.8,5.47,1.85,5.19,6.16,4.5,9.25-1,4.71-3.24,6.81-7.12,6.81-.24,0-.48,0-.72,0a31,31,0,0,1-3.7-.43c-.88,3.57-1.87,7.36-3,11.54A7.14,7.14,0,0,1,258.6,85a6.94,6.94,0,0,1-1,.07,21.7,21.7,0,0,1-5.23-.81,19.88,19.88,0,0,1,2.89,3.21c3.09,4.32,4.11,9.63,3,15.79C256.33,114.72,247.59,121.58,234.9,121.58Zm-3.46-29.64c-3.94,0-6.59,2.14-7.28,5.87a7.13,7.13,0,0,0,.91,5.5,7.94,7.94,0,0,0,5.4,3,15.75,15.75,0,0,0,2.54.23c4.08,0,6.4-2.14,7.1-6.54.42-2.76.21-6.59-6.47-7.82A12.2,12.2,0,0,0,231.44,91.94Zm9.82-29.39,2,.31.27,0c3.88.6,4.83,3.19,5,5.4,1.71-8.38,3.67-17.83,5.72-26.75a5.47,5.47,0,0,1-4.86,2.52,10.24,10.24,0,0,1-1.41-.11c-.43-.05-1-.15-1.65-.26l-.23,0C244.54,50,243.06,55.81,241.26,62.55Zm-22.47-3.64c1.51.22,3,.43,4.47.68.79-3.22,1.55-6.46,2.29-9.6s1.51-6.42,2.25-9.42l-5.43-1c-.51,2.72-1,5.55-1.56,8.45C220.16,51.57,219.5,55.24,218.79,58.91Z"/><path class="cls-2" d="M203.9,20.28a5.56,5.56,0,0,1,1,.1c13.65,2.73,30.91,6.14,46.36,9.67,3,.67,3.89,3,3,7.07s-2.58,5.45-4.95,5.45a7,7,0,0,1-1.18-.1c-.87-.09-2-.34-3.25-.51-1.67,7-3.32,13.6-5.52,21.76,1.32.29,2.57.46,3.91.66,3.06.48,4.13,2.34,3.51,6.47-.68,4.29-2.38,5.37-4.87,5.37-.31,0-.63,0-1,0-8.23-.81-32.49-3.44-46.78-6.4-2.85-.53-4.4-2-3.52-6.88.79-4,2.27-5.89,5-5.89a6.44,6.44,0,0,1,.86.06c1.72.28,3.63.6,5.56.83,1.31-8.56,2.5-15.72,3.94-23.13-1.41-.32-2.92-.65-4.13-1-2.81-.72-4.25-2.67-3.09-7.5.86-3.86,2.49-6,5.1-6m20.49,41c1.86-7.52,3.56-15.18,5.25-21.93l-8.46-1.57c-1.34,6.93-2.66,14.67-4.17,22.37,2.5.35,4.9.68,7.38,1.13m37.89-27.69a16.27,16.27,0,0,1,8.57,2.49c1.81,1.22,2.07,2.7,1.51,5.22-.79,3.59-1.54,7.39-2.4,11.27,1.7.37,3.4.75,4.51,1.1,3.5,1.18,4.37,3.51,3.49,7.48-1,4.42-2.88,5.64-5.66,5.64-.21,0-.42,0-.64,0a29.89,29.89,0,0,1-4.89-.68c-1.15,4.73-2.33,9.15-3.36,12.89a5.62,5.62,0,0,1-5,4.47,4.26,4.26,0,0,1-.78.06c-2,0-5.86-.73-7.24-1.83a5.43,5.43,0,0,1-1.93-5.62c2.22-10.9,5.14-25.4,8.17-38.16.58-2.61,1.84-3.86,4-4.19a10.19,10.19,0,0,1,1.69-.12M229.79,78.41a40.7,40.7,0,0,1,6,.48C252,81.46,259,90.54,256.82,103c-1.71,10-9.06,17.11-21.92,17.11a41.2,41.2,0,0,1-7.07-.65c-16.85-3-22.88-13.31-20.37-24.65,2-9.21,9.5-16.37,22.33-16.37M233,108c4.7,0,7.74-2.5,8.58-7.8.87-5.71-2.36-8.56-7.68-9.54a13.44,13.44,0,0,0-2.47-.23c-4.57,0-7.93,2.6-8.75,7.1-1,5.38,1.81,9.25,7.53,10.22A16.5,16.5,0,0,0,233,108M203.9,17.28c-2.82,0-6.49,1.44-8,8.28-.82,3.43-1.22,9.37,5.2,11.07.46.14.95.27,1.45.4-1,5.26-1.92,10.74-3,17.48l-2.07-.33L197,54.1h-.1a9.08,9.08,0,0,0-1.25-.09c-4.16,0-6.82,2.79-7.92,8.3v.05c-1.08,5.93.91,9.42,5.89,10.36,7.21,1.5,17.22,3,26.65,4.14a22.92,22.92,0,0,0-15.74,17.28c-1.39,6.27-.43,12.12,2.76,16.91,3.83,5.76,10.75,9.68,20,11.34a44.67,44.67,0,0,0,7.6.7c13.48,0,22.78-7.33,24.87-19.6,1.13-6.47,0-12.32-3.3-16.91l-.06-.09c.46,0,.86.06,1.18.06a7.12,7.12,0,0,0,1.29-.1,8.56,8.56,0,0,0,7.41-6.59l0,0c1-3.68,1.9-7,2.7-10.24.88.12,1.74.2,2.51.24l.78,0c4.59,0,7.39-2.61,8.59-8,1.25-5.64-.59-9.33-5.46-11l-.06,0c-.54-.16-1.16-.33-1.85-.5.22-1,.42-2,.63-3,.39-1.87.76-3.64,1.14-5.38.34-1.54,1.25-5.64-2.75-8.34a19.15,19.15,0,0,0-10.26-3,14.57,14.57,0,0,0-2.14.15,8,8,0,0,0-2.9,1A6.87,6.87,0,0,0,252,27.12c-14.81-3.38-31.35-6.67-44.64-9.32l-1.78-.36a8.74,8.74,0,0,0-1.64-.16Zm16.66,40.37c.6-3.16,1.17-6.31,1.73-9.38.44-2.4.86-4.72,1.28-7l2.4.44c-.62,2.54-1.24,5.17-1.88,7.9s-1.29,5.47-2,8.24l-1.57-.24Zm28.78-12.08a7.7,7.7,0,0,0,2.5-.39c-1.36,6.08-2.66,12.29-3.87,18.16a7.59,7.59,0,0,0-4.21-1.92l-.3-.05-.32,0c1.49-5.61,2.76-10.62,4-16l.59.08a11,11,0,0,0,1.57.12ZM233,105a13.61,13.61,0,0,1-2.28-.21,6.72,6.72,0,0,1-4.43-2.35,5.58,5.58,0,0,1-.66-4.36c.55-3,2.61-4.65,5.8-4.65a10.81,10.81,0,0,1,1.92.18c5.3,1,5.66,3.53,5.27,6.14C238,103.43,236.36,105,233,105Z"/><path class="cls-3" d="M278.36,115.87c-3.37,0-5.39-2.21-5.39-5.91,0-3.51,1.87-5.76,5-6,9.24-.7,19.8-1.19,28.28-1.58l5.09-.24h.18a4,4,0,0,1,2.56.88c-.05-11.2.06-19.78.37-32.41.09-2.42,1.05-4,2.92-4.78A9.43,9.43,0,0,1,321.1,65a9.27,9.27,0,0,1,3.91.86c2.31,1.1,2.62,3,2.62,4.66.12,13.49-.32,24.7-1.56,40-.15,2.15-1.76,4-4.31,4.86a6,6,0,0,1-1.87.28,8,8,0,0,1-2.71-.49,4.5,4.5,0,0,1-2.94-3.44,6.26,6.26,0,0,1-3.15,1.37c-10.38,1.51-23.67,2.41-32.67,2.75ZM293.66,101c-12.23,0-19.52-6.62-19.52-17.71,0-10.24,8-17.76,19.45-18.28.43,0,.87,0,1.29,0,12.64,0,18.29,9.2,18.29,18.32C313.17,93.58,305,101,293.66,101Zm.51-24.2-.42,0c-3.84.21-6.31,2.72-6.31,6.41a5.73,5.73,0,0,0,6,6c3.91,0,6.53-2.53,6.53-6.28S297.62,76.83,294.17,76.83Z"/><path class="cls-3" d="M294.88,66.5c11.12,0,16.79,7.69,16.79,16.82s-7.32,16.21-18,16.21c-12,0-18-6.49-18-16.21,0-9,6.74-16.27,18-16.79l1.22,0M293.4,90.78c4.66,0,8-3.18,8-7.78s-3.17-7.67-7.26-7.67l-.51,0c-4.67.26-7.72,3.5-7.72,7.91a7.2,7.2,0,0,0,7.46,7.52m27.7-24.25a7.81,7.81,0,0,1,3.28.72c1.36.65,1.75,1.62,1.75,3.3.13,14.33-.39,25.54-1.56,39.86-.13,1.88-1.81,3-3.3,3.57a4.6,4.6,0,0,1-1.38.2,6.31,6.31,0,0,1-2.19-.4,3.12,3.12,0,0,1-2.07-3.11c-.13-15-.07-24.37.32-40,.07-1.75.65-2.85,2-3.44a7.82,7.82,0,0,1,3.14-.65m-9.58,37.08c1.76,0,2.88,1.53,2.94,3.69,0,3.11-1.75,4-3.63,4.35-9.4,1.36-22.23,2.33-32.47,2.72-2.33,0-3.89-1.3-3.89-4.41,0-2.85,1.36-4.34,3.63-4.54,11.08-.84,23.79-1.36,33.32-1.81h.1M294.88,63.5h0c-.45,0-.91,0-1.37,0-12.29.56-20.87,8.7-20.87,19.78,0,5.75,1.88,10.57,5.45,13.93a18.74,18.74,0,0,0,8.9,4.57c-3.1.19-6.18.39-9.12.61-4,.34-6.4,3.23-6.4,7.53,0,4.5,2.7,7.41,6.89,7.41h.11c9-.35,22.4-1.25,32.79-2.76h.08a9.2,9.2,0,0,0,2.16-.63,6,6,0,0,0,3.2,2.64,9.32,9.32,0,0,0,3.19.57,7.59,7.59,0,0,0,2.33-.35c3.17-1.11,5.15-3.42,5.35-6.21,1.24-15.3,1.68-26.55,1.56-40.09a6.12,6.12,0,0,0-3.46-6,10.88,10.88,0,0,0-4.57-1h0a10.92,10.92,0,0,0-4.34.9c-1.65.71-3.67,2.35-3.81,6.08,0,1.3-.06,2.57-.09,3.79-3-6.69-9.48-10.8-18-10.8ZM293.4,87.78a4.21,4.21,0,0,1-4.46-4.52c0-2.87,1.87-4.75,4.88-4.92h.35c2.59,0,4.26,1.83,4.26,4.67s-2,4.78-5,4.78ZM302.23,101a19,19,0,0,0,10.36-8.94c0,2.8,0,5.62,0,8.61a6,6,0,0,0-1.05-.09h-.21l-5.15.24-3.93.18Z"/><path class="cls-4" d="M109.29,209.34c-4.43,0-7-2.74-7-7.52s2.47-7.77,6.56-7.89c3.8-.16,7.49-.34,11.1-.53l6.52-.32v-7.15c-3.33.09-6.44.15-9.08.21l-4.8.11h-.32c-6.56,0-7.66-4.36-7.88-8.17-.2-3.52-.38-7.83-.52-12.81-.19-7-.31-14.86-.31-21.5,0-3.45,2.06-5.66,5.37-5.79,5.9-.32,35.63-.77,47.89-.77,2,0,3.6,0,4.6,0a4.34,4.34,0,0,1,4.56,4.44c.22,7.23.26,15.91.1,24.49-.08,4.36-.21,8.56-.37,12.16-.21,3.88-1.77,5.61-5.36,6-3.14.4-8.37.75-15.54,1.05v7c6.21-.23,12.53-.32,18.65-.4,3.47,0,5.78,2.58,5.9,6.57,0,4.52-2.23,7.12-6.46,7.56-17.46,1.81-34.49,2.83-53.61,3.2Zm12.82-55.68c.12,2,.24,4.43.37,6.86.09,1.76.18,3.54.27,5.21.14,2.39.25,4.2.34,5.54l6.36-.05c6.8-.05,15.27-.11,18.55-.29l.32,0v0c-.07-1.66-.15-4.1-.23-6.78v-.49c-.1-3.32-.21-7-.33-10Z"/><path class="cls-4" d="M156.85,138.71c2,0,3.57,0,4.56,0,2,.09,3,1.09,3.1,3,.24,7.71.24,16.44.1,24.39-.08,4.38-.21,8.52-.37,12.12-.18,3.38-1.37,4.29-4,4.56-3.65.46-9.95.82-16.88,1.1v10c6.57-.28,13.23-.37,20.17-.46,2.64,0,4.29,2,4.38,5.11,0,4.48-2.47,5.75-5.11,6-17.62,1.82-34.87,2.83-53.49,3.19-3.38,0-5.47-1.82-5.47-6-.1-4,1.91-6.3,5.11-6.39,6.66-.28,13-.64,19.07-.91V184.38c-6.3.19-12,.28-15.42.37h-.28c-4.53,0-6.12-2.19-6.39-6.75-.21-3.71-.38-8.14-.51-12.77-.2-7.35-.31-15.19-.31-21.46,0-2.74,1.56-4.2,3.93-4.29,5.75-.32,35.24-.77,47.83-.77M121.7,172.79c4.93-.09,21.45-.09,26.38-.36,1.28-.09,1.74-.37,1.74-1.55v-.1c-.08-1.63-.15-4.05-.23-6.72-.11-4.05-.25-8.65-.41-11.9H120.52c.22,3.62.48,9,.74,13.65.15,2.84.31,5.38.44,7m35.15-37.08c-12.28,0-42,.45-48,.77-4,.16-6.76,3.09-6.76,7.29,0,6.65.12,14.5.31,21.54.14,5,.32,9.32.52,12.86.14,2.37.56,9.58,9.38,9.58h.34l4.77-.11,7.59-.17v4.18l-5.1.26c-3.59.18-7.29.36-11.1.52-4.87.14-8.1,3.92-8,9.42s3.17,9,8.47,9h.06c19.16-.38,36.23-1.4,53.74-3.21,5-.51,7.8-3.8,7.8-9v-.09c-.14-4.79-3.11-8-7.38-8-5.66.08-11.44.15-17.17.34v-4c6.46-.28,11.24-.62,14.22-1,4.31-.45,6.43-2.8,6.67-7.38.17-3.64.3-7.86.38-12.23.16-8.59.12-17.3-.1-24.53v0a5.85,5.85,0,0,0-6-5.87h-.06c-1,0-2.53,0-4.63,0ZM123.7,155.16h22.61c.1,2.64.19,5.69.27,8.48l0,.51c.06,2.09.11,3.89.16,5.33-3.75.14-11.21.2-17.32.24l-5,0c-.07-1.12-.15-2.48-.24-4.12s-.18-3.47-.27-5.24-.19-3.61-.28-5.24Z"/><path class="cls-4" d="M201.27,218.56c-5.25,0-7.61-2.08-8.15-7.18-.38-4.18-1-15.16-1.11-20.86,0-3.46,2.06-5.68,5.37-5.81,6.6-.36,39.39-1.55,46.52-1.55,2.44,0,4,1.62,4,4.24.18,6.68-.56,20.1-1,24.87-.45,3.15-2.16,4.84-5.11,5.1C232.45,218.1,211.57,218.56,201.27,218.56ZM209,198.2c.1,1.45.2,2.61.29,3.8.07.93.15,1.87.23,3,5.45,0,16.37-.19,21-.36l.29,0a.86.86,0,0,1,0-.16c.07-2.37,0-4.39-.06-7.16C225,197.46,214.56,197.88,209,198.2Z"/><path class="cls-4" d="M243.9,184.66c1.73,0,2.46,1.09,2.46,2.74.18,6.66-.55,19.89-1,24.73-.37,2.56-1.65,3.56-3.75,3.74-9.31.73-30.39,1.19-40.34,1.19-4.47,0-6.21-1.55-6.66-5.84-.37-4.11-1-15.06-1.1-20.72,0-2.74,1.55-4.2,3.93-4.29,6.66-.37,39.24-1.55,46.46-1.55m-35.78,21.81c4.93,0,17.52-.18,22.45-.36,1.28-.09,1.73-.37,1.73-1.55v-.1c.1-2.83,0-5.2-.09-8.76-5.29.18-19.26.73-24.82,1.1.27,4,.45,5.84.73,9.67m35.78-24.81c-7.37,0-39.83,1.18-46.63,1.55-4,.16-6.76,3.09-6.76,7.29.1,5.77.74,16.81,1.11,21v.06c.62,5.81,3.69,8.52,9.65,8.52,10.33,0,31.27-.47,40.58-1.2,3.65-.31,5.94-2.55,6.48-6.3,0-.05,0-.1,0-.15.47-4.92,1.2-18.16,1-25.06,0-3.41-2.21-5.69-5.46-5.69Zm-33.3,18c5.25-.28,13.3-.61,18.69-.81,0,1.57.06,2.93,0,4.34-4.64.14-13.16.27-18.43.31,0-.55-.08-1.06-.13-1.58-.05-.74-.11-1.47-.17-2.26Z"/><path class="cls-4" d="M201.59,184.18c-11,0-22.9-6.13-22.9-19.6a18.26,18.26,0,0,1,.7-4.92,17.46,17.46,0,0,1,2.27-5l-3.09,0c-4.12,0-6-2.12-6.09-6.86-.15-7,3.51-8.24,5.7-8.37l3.16-.13c3.1-.12,6.44-.26,9.94-.43-.05-.87-.09-1.63-.09-2.32-.23-5.1,2.82-7.85,9.33-8.34.67-.05,1.3-.07,1.88-.07,5.57,0,8.4,2.21,8.4,6.58v3.38l5.94-.17c2.7-.07,5.35-.14,7.93-.23h.25c2.48,0,5.5,1.25,5.78,7.18S228,151.81,225,152.1a11.58,11.58,0,0,1-1.41.08,14.57,14.57,0,0,1,1.83,2.92l2-.08c1.44-.05,2.81-.11,4.08-.14,0-4.61,0-9.31.1-13.7,0-3,1.24-5,3.79-5.93a15.31,15.31,0,0,1,5.35-.88,15.72,15.72,0,0,1,5.69,1c3,1.14,3.41,3.56,3.41,5.77.13,8.23.1,17.22-.08,24.62-.11,4.45-.27,8.3-.47,11.44a6.68,6.68,0,0,1-4.7,6.32,15.33,15.33,0,0,1-4.74.62h0a10.8,10.8,0,0,1-4.2-.66,6.48,6.48,0,0,1-3.78-6c-.07-2.17-.15-4.68-.18-7.26-1.92.1-4,.17-5.94.23h-.17c-3.22,8.24-11.34,13.22-22.45,13.72Zm1.29-30.7c-4.31.15-7,3.67-6.95,9,0,.17,0,.35,0,.52v.12c.13,2.22,1,7.38,6.44,7.38h.44c3.54-.17,5.85-2,6.67-5.18a12.68,12.68,0,0,0,.3-4.08c-.25-3.53-1.59-7.74-6.57-7.74Z"/><path class="cls-4" d="M202.4,129.65c5.26,0,6.9,1.94,6.9,5.08v4.93c5.3-.18,10.5-.27,15.43-.46h.19c2.79,0,4.1,2,4.28,5.75.18,4.48-1.55,5.39-4.38,5.66-.46.09-4.56.09-5,.19a11.55,11.55,0,0,1,4.65,5.84c2.93-.09,6.12-.28,8.58-.28,0-5.11,0-10.31.1-15.15,0-2.46.91-3.83,2.82-4.56a14,14,0,0,1,4.83-.78,14.27,14.27,0,0,1,5.12.87c1.92.73,2.47,2,2.47,4.38.12,7.53.12,16.53-.08,24.58-.1,4.16-.25,8.06-.47,11.38a5.2,5.2,0,0,1-3.74,5,14.07,14.07,0,0,1-4.2.52,9.43,9.43,0,0,1-3.56-.52,5,5,0,0,1-2.92-4.65c-.09-2.74-.18-5.75-.18-8.86-2.65.19-5.94.28-8.67.37-2.38,7.12-9.22,13.14-21.45,13.69l-1.51,0c-14.32,0-21.4-8.84-21.4-18.1a17.08,17.08,0,0,1,.65-4.52,13.25,13.25,0,0,1,4.28-7l-6.58.09c-2.73,0-4.47-.82-4.56-5.39-.09-4.1,1.19-6.66,4.29-6.84,4.38-.18,9.31-.37,14.6-.64-.09-1.55-.18-2.74-.18-3.74-.18-4,1.92-6.39,7.94-6.85q.94-.06,1.77-.06m0,42.33h.51c4.22-.2,7.06-2.43,8.05-6.31a14.3,14.3,0,0,0,.35-4.55c-.44-6.2-3.55-9.14-8.07-9.14h-.42c-5.2.18-8.49,4.38-8.39,10.5,0,.24,0,.47,0,.71.31,5.26,3.17,8.79,7.94,8.79m0-45.33h0c-.62,0-1.28,0-2,.07-5.08.38-11,2.41-10.74,9.9,0,.27,0,.55,0,.83-3,.14-5.86.26-8.47.36l-3.1.13h0c-2.2.13-7.3,1.36-7.11,9.91.11,5.6,2.59,8.32,7.56,8.32h.54a20.92,20.92,0,0,0-1.13,3.09,19.77,19.77,0,0,0-.76,5.33c0,10.16,7.63,21.1,24.4,21.1.54,0,1.09,0,1.63,0,11.33-.51,19.73-5.49,23.4-13.76l3.63-.13c0,2,.09,4,.15,5.74a8,8,0,0,0,4.64,7.32,11.77,11.77,0,0,0,4.84.8,16.6,16.6,0,0,0,5.31-.73,8.12,8.12,0,0,0,5.62-7.6c.21-3.18.37-7,.48-11.51.18-7.43.21-16.43.08-24.71,0-2.31-.46-5.63-4.4-7.13a17.24,17.24,0,0,0-6.19-1.07,17.05,17.05,0,0,0-5.88,1,7,7,0,0,0-4.51,5,6.32,6.32,0,0,0-5.47-2.64h-.29c-2.59.09-5.19.16-7.95.23l-4.38.12v-1.83c0-7-6.2-8.08-9.9-8.08Zm23.85,26.79a7.56,7.56,0,0,0,3.79-1.76c0,.58,0,1.16,0,1.74l-2.63.1-1.07,0-.08-.13ZM202.4,169c-4,0-4.81-3.74-4.94-6v-.13c0-.15,0-.29,0-.45,0-1.7.29-7.27,5.5-7.45h.31c4.63,0,4.95,4.62,5.08,6.35a11.75,11.75,0,0,1-.26,3.6c-.66,2.59-2.39,3.91-5.29,4.05Z"/><path class="cls-5" d="M34.46,94.87c.38,1.79,1.13,2.28,3,1.76,7.87-2.13,12.21-3.28,18.77-5,3.13-.78,4.71.09,5.77,4,1.38,5,0,7.46-2.18,8.25a186.34,186.34,0,0,1-27.19,8.48c-4.57,1.09-7.37-.06-9-3.22-2.39-4.64-6.73-18.39-9.14-28.62A3.72,3.72,0,0,1,16.85,76c5.89-2.37,14.92-5.51,21.88-7.88-1-4.17-2.18-9.18-3.39-13.3-6.4,1.48-13.49,3.22-19.76,4.35-3.79.71-5.75,0-7-6.07-1.27-6.41-.21-8,3.13-8.78,9.8-2.55,24.47-6.25,33.26-8a2.39,2.39,0,0,1,2.91,2.11C50.47,49.23,53.21,61,55.43,71.84c.74,3.46-.24,5.32-3.52,6.46-5.24,1.89-14.63,4.9-19.53,6.39C32.94,87.31,33.87,92.15,34.46,94.87ZM76.84,71.19c2.15,10.5,4,21.06,5.92,33,.6,4.25-1.82,7.4-6.35,8.16-4.25.58-6.38-1.37-7.47-6-5.51-22.17-10.7-44.84-15.22-67.87-.81-3.77.3-6.53,6.2-7.91s8.42.49,9.16,4l4.66,21.69c2.22-.59,4.18-.9,6.12-1.31-1.23-6.75-2.66-13.9-4.13-21.7-.76-3.56.35-6.32,6.16-7.57,6.33-1.36,8.85.95,9.45,4.22,5.35,24.94,9.42,45.88,12.43,71.76.57,4.15-1.62,7.36-6.18,8-4.14.56-6.25-1.29-7.34-5.88C87.3,91.08,85,80.4,82.85,69.9Z"/><path class="cls-6" d="M139.28,13.4c0-3.71,2.78-5.93,8.66-5.93s7.95,1.69,8.05,5.41c.42,13.35.62,32.12-.72,45.58-.31,3-1.86,3.82-4.85,4.14-10.73.95-26.21,1.48-37.66,1.27A8.27,8.27,0,0,1,104.82,56c-.93-12.62-1.45-25.45-2-41.46-.11-4.24,1.85-6.47,8.56-6.78,5.37-.22,8.56,1.16,8.77,5.51.1,2.76.21,6.89.41,11.56l18.68-1.6ZM159.4,77.34c6.19,3.18,17.64,8.48,23.93,12.29a3.91,3.91,0,0,1,2,3.4c.11,3.71-2.68,7.74-5.15,8.8a5.28,5.28,0,0,1-4,0,172.29,172.29,0,0,1-25.48-12.3c-6.71,5.19-17,10.92-22.8,13.89a5.63,5.63,0,0,1-4.24.63,8.11,8.11,0,0,1-5.77-6.57,4.48,4.48,0,0,1,1.65-4.66c4.23-3.29,15.06-10.18,21.56-14.74l-.51-6.68c-.42-3.82,2.78-5.2,9.18-5.73,7.94-.63,9.9,1.7,9.9,4.77ZM139.38,39,121,40c.1,3.81.1,7.31.2,9.54,5.88-.11,10.32-.32,16.3-.53a1.81,1.81,0,0,0,2-2Zm30,26.4A5.8,5.8,0,0,1,166.1,60c-.2-11.88-.51-30.54-.31-44.53,0-2.86,1-4.45,3.2-5.3a17.07,17.07,0,0,1,11.25.1c2.17.85,2.78,2.34,2.78,5.09.21,13.26.11,32.87-.61,44.21a6,6,0,0,1-4.23,5.84C176.63,66,171.37,66.31,169.41,65.36Z"/><path class="cls-7" d="M238,62.44c1.32.29,2.57.47,3.91.66,3.06.48,4.13,2.34,3.51,6.48-.77,4.81-2.82,5.57-5.83,5.31-8.23-.8-32.49-3.44-46.78-6.4-2.85-.53-4.4-2-3.52-6.88.88-4.39,2.57-6.25,5.85-5.83,1.72.28,3.62.6,5.55.83,1.31-8.56,2.5-15.72,3.94-23.13-1.41-.31-2.92-.65-4.13-1-2.8-.72-4.25-2.67-3.08-7.5,1-4.36,2.92-6.47,6.14-5.85,13.65,2.72,30.91,6.14,46.36,9.66,3,.67,3.89,3,3,7.07-.95,4.77-3.16,5.81-6.13,5.35-.87-.09-2-.34-3.25-.51C241.84,47.73,240.18,54.28,238,62.44Zm-11.56,55.71c-16.85-3-22.88-13.31-20.37-24.65,2.35-10.57,11.81-18.44,28.37-15.88,16.16,2.56,23.15,11.64,21,24.07C253.42,113.36,243.67,121.16,226.42,118.15Zm1.81-80-8.46-1.57c-1.34,6.92-2.66,14.66-4.16,22.36,2.49.35,4.89.68,7.37,1.13C224.84,52.51,226.54,44.85,228.23,38.11Zm12,60.82c.87-5.71-2.35-8.56-7.68-9.54-5.8-1.08-10.25,1.6-11.22,6.87s1.81,9.25,7.53,10.22C235.1,107.57,239.19,105.22,240.18,98.93ZM262,77.73A5.67,5.67,0,0,1,257,82.21c-1.55.26-6.42-.51-8-1.78A5.46,5.46,0,0,1,247,74.81c2.22-10.89,5.14-25.4,8.17-38.15.58-2.62,1.84-3.87,4-4.2a15.92,15.92,0,0,1,10.26,2.37c1.81,1.22,2.07,2.7,1.51,5.22-.79,3.59-1.54,7.39-2.39,11.27,1.69.37,3.39.75,4.5,1.1,3.5,1.18,4.37,3.51,3.49,7.48-1.05,4.75-3.17,5.81-6.3,5.63a32.27,32.27,0,0,1-4.89-.68C264.21,69.58,263,74,262,77.73Z"/><path class="cls-8" d="M277,113.09c-2.33,0-3.89-1.3-3.89-4.41,0-2.85,1.36-4.34,3.63-4.53,11.08-.85,23.79-1.37,33.32-1.82,1.81-.06,3,1.49,3,3.69,0,3.12-1.75,4-3.63,4.35C300,111.73,287.19,112.7,277,113.09Zm15.3-14.84c-12,0-18-6.48-18-16.21,0-9,6.74-16.27,18-16.78,11.92-.59,18,7.32,18,16.78C310.27,91.31,302.94,98.25,292.25,98.25Zm0-24.18c-4.67.26-7.72,3.5-7.72,7.91A7.2,7.2,0,0,0,292,89.5c4.66,0,8-3.18,8-7.78C300,76.86,296.59,73.81,292.25,74.07Zm24,38.44a3.14,3.14,0,0,1-2.07-3.11c-.13-15-.07-24.38.32-40.06.07-1.75.65-2.85,2-3.44A7.92,7.92,0,0,1,323,66c1.36.65,1.75,1.62,1.75,3.3.13,14.33-.39,25.54-1.56,39.87-.13,1.88-1.81,3-3.3,3.56A5.76,5.76,0,0,1,316.29,112.51Z"/><path class="cls-9" d="M146.67,171.15c1.28-.09,1.74-.37,1.74-1.55v-.09c-.07-1.63-.15-4.06-.23-6.73-3.28-1.76-6.11-3.78-12.55-3.73-8.43.07-10.63,3.59-15.78,5.48.15,2.84.31,5.38.45,7C125.22,171.42,141.75,171.42,146.67,171.15Z"/><path class="cls-9" d="M148.18,162.78c-.11-4-.25-8.65-.41-11.89H119.11c.23,3.61.49,9,.74,13.64,5.15-1.89,7.35-5.41,15.78-5.48C142.07,159,144.9,161,148.18,162.78Z"/><path class="cls-9" d="M209.56,164.38a14.61,14.61,0,0,0,.34-4.55c-.45-6.39-3.74-9.31-8.49-9.13-5.2.19-8.48,4.38-8.39,10.5,0,.24,0,.48,0,.71A20.12,20.12,0,0,0,204.38,165,22.82,22.82,0,0,0,209.56,164.38Z"/><path class="cls-9" d="M201.5,170.69c4.22-.2,7.06-2.43,8.06-6.31a22.82,22.82,0,0,1-5.18.59,20.12,20.12,0,0,1-11.33-3.06C193.38,167.36,196.43,171,201.5,170.69Z"/><path class="cls-10" d="M163.1,140.48c-.09-1.92-1.09-2.92-3.1-3-7.21-.18-45.73.36-52.39.73-2.37.09-3.93,1.55-3.93,4.29,0,6.27.11,14.11.31,21.46a19.62,19.62,0,0,0,8.8,1.74,20.44,20.44,0,0,0,7.06-1.16c-.25-4.61-.51-10-.74-13.64h28.66c.16,3.24.3,7.85.41,11.89a19.55,19.55,0,0,0,10.4,2.55,22.74,22.74,0,0,0,4.62-.46C163.35,156.92,163.34,148.19,163.1,140.48Z"/><path class="cls-11" d="M148.18,162.78c.08,2.67.16,5.1.23,6.73v.09c0,1.18-.46,1.46-1.74,1.55-4.92.27-21.45.27-26.37.36-.14-1.6-.3-4.14-.45-7a20.44,20.44,0,0,1-7.06,1.16A19.62,19.62,0,0,1,104,164c.13,4.63.3,9.06.52,12.77.27,4.65,1.91,6.84,6.66,6.75,3.47-.09,9.13-.18,15.42-.36v10.13c-6.11.27-12.41.64-19.07.91-3.2.09-5.2,2.37-5.11,6.39,0,4.2,2.1,6,5.47,6,18.62-.36,35.87-1.37,53.49-3.19,2.65-.28,5.11-1.55,5.11-6-.09-3.1-1.73-5.11-4.38-5.11-6.94.09-13.6.19-20.17.46v-10c6.93-.27,13.23-.64,16.88-1.1,2.65-.27,3.84-1.18,4-4.56.16-3.6.29-7.74.37-12.12a22.74,22.74,0,0,1-4.62.46A19.55,19.55,0,0,1,148.18,162.78Z"/><path class="cls-11" d="M242.49,183.38c-7.21,0-39.8,1.19-46.46,1.55-2.37.09-3.93,1.55-3.93,4.29.1,5.66.73,16.61,1.1,20.72.46,4.29,2.19,5.84,6.66,5.84,9.95,0,31-.46,40.34-1.19,2.1-.18,3.38-1.18,3.75-3.74.45-4.83,1.18-18.07,1-24.73C245,184.48,244.22,183.38,242.49,183.38Zm-11.6,19.81v.09c0,1.18-.45,1.46-1.73,1.55-4.93.18-17.52.36-22.45.36-.28-3.83-.46-5.65-.73-9.67,5.56-.37,19.53-.91,24.82-1.1C230.89,198,231,200.36,230.89,203.19Z"/><path class="cls-10" d="M247,139.84c0-2.37-.55-3.65-2.47-4.38a15.44,15.44,0,0,0-9.94-.09c-1.92.73-2.83,2.1-2.83,4.56-.09,4.84-.09,10-.09,15.15-2.47,0-5.66.19-8.58.28a11.61,11.61,0,0,0-4.66-5.84c.46-.09,4.56-.09,5-.19,2.83-.27,4.56-1.18,4.38-5.65-.18-3.84-1.55-5.85-4.47-5.75-4.93.18-10.13.27-15.43.45v-4.93c0-3.46-2-5.47-8.67-5-6,.46-8.12,2.83-7.94,6.85,0,1,.09,2.19.18,3.74-5.29.27-10.22.46-14.6.64-3.1.18-4.38,2.74-4.29,6.85.09,4.56,1.83,5.38,4.57,5.38l6.57-.09a13.25,13.25,0,0,0-4.28,7c.63-.05,1.29-.08,2-.09a20.44,20.44,0,0,1,11.62,3.22c0-.23,0-.47,0-.71-.09-6.12,3.19-10.31,8.39-10.5,4.75-.18,8,2.74,8.49,9.13a14.61,14.61,0,0,1-.34,4.55c6.62-1.61,8.27-6,17.67-6,10.23-.08,11.37,5.06,19.65,6.1C247.08,156.37,247.08,147.37,247,139.84Z"/><path class="cls-11" d="M209.56,164.38c-1,3.88-3.84,6.11-8.06,6.31-5.07.27-8.12-3.33-8.45-8.78a20.44,20.44,0,0,0-11.62-3.22c-.71,0-1.37,0-2,.09a17.14,17.14,0,0,0-.65,4.52c0,9.58,7.57,18.71,22.91,18.07,12.23-.55,19.07-6.57,21.45-13.69,2.73-.09,6-.18,8.67-.36,0,3.1.09,6.11.18,8.85a5,5,0,0,0,2.92,4.65c1.73.83,6.39.55,7.76,0a5.2,5.2,0,0,0,3.74-5c.22-3.32.37-7.22.47-11.37-8.28-1-9.42-6.18-19.65-6.1C217.83,158.41,216.18,162.77,209.56,164.38Z"/></g></g></svg>